<svg width="233" height="48" viewBox="0 0 233 48" fill="none" xmlns="http://www.w3.org/2000/svg">
<path d="M24 6C21.78 6 20 7.78 20 10H6V38H4V42H44V38H42V10C42 7.78 40.22 6 38 6H24ZM24 10H38V38H24V10ZM10 22H14V26H10V22Z" fill="#32383D"/>
<path d="M57.792 36V12.992H76.352C77.1627 12.992 77.9093 13.1947 78.592 13.6C79.2747 14.0053 79.8187 14.5493 80.224 15.232C80.6293 15.8933 80.832 16.6293 80.832 17.44V23.648C80.832 24.4587 80.6293 25.2053 80.224 25.888C79.8187 26.5707 79.2747 27.1147 78.592 27.52C77.9093 27.904 77.1627 28.096 76.352 28.096L62.016 28.128V36H57.792ZM62.4 23.84H76.16C76.2667 23.84 76.3627 23.808 76.448 23.744C76.5333 23.68 76.576 23.5947 76.576 23.488V17.6C76.576 17.4933 76.5333 17.408 76.448 17.344C76.3627 17.2587 76.2667 17.216 76.16 17.216H62.4C62.2933 17.216 62.1973 17.2587 62.112 17.344C62.048 17.408 62.016 17.4933 62.016 17.6V23.488C62.016 23.5947 62.048 23.68 62.112 23.744C62.1973 23.808 62.2933 23.84 62.4 23.84ZM82.9765 36V21.856C82.9765 21.0453 83.1792 20.3093 83.5845 19.648C83.9898 18.9867 84.5232 18.4533 85.1845 18.048C85.8672 17.6427 86.6032 17.44 87.3925 17.44H97.6965V21.632H87.5525C87.4458 21.632 87.3498 21.6747 87.2645 21.76C87.2005 21.824 87.1685 21.9093 87.1685 22.016V36H82.9765ZM104.142 36C103.331 36 102.595 35.7973 101.934 35.392C101.272 34.9867 100.739 34.4533 100.334 33.792C99.9284 33.1307 99.7258 32.3947 99.7258 31.584V21.856C99.7258 21.0453 99.9284 20.3093 100.334 19.648C100.739 18.9867 101.272 18.4533 101.934 18.048C102.595 17.6427 103.331 17.44 104.142 17.44H114.158C114.968 17.44 115.704 17.6427 116.366 18.048C117.048 18.4533 117.582 18.9867 117.966 19.648C118.371 20.3093 118.574 21.0453 118.574 21.856V31.584C118.574 32.3947 118.371 33.1307 117.966 33.792C117.582 34.4533 117.059 34.9867 116.398 35.392C115.736 35.7973 114.99 36 114.158 36H104.142ZM104.302 31.808H113.998C114.104 31.808 114.19 31.776 114.254 31.712C114.339 31.6267 114.382 31.5307 114.382 31.424V22.016C114.382 21.9093 114.339 21.824 114.254 21.76C114.19 21.6747 114.104 21.632 113.998 21.632H104.302C104.195 21.632 104.099 21.6747 104.014 21.76C103.95 21.824 103.918 21.9093 103.918 22.016V31.424C103.918 31.5307 103.95 31.6267 104.014 31.712C104.099 31.776 104.195 31.808 104.302 31.808ZM124.666 43.328V39.104H135.834C135.941 39.104 136.026 39.0613 136.09 38.976C136.175 38.912 136.218 38.8267 136.218 38.72V36H125.978C125.189 36 124.453 35.7973 123.77 35.392C123.109 34.9867 122.575 34.4533 122.17 33.792C121.765 33.1307 121.562 32.3947 121.562 31.584V21.856C121.562 21.0453 121.765 20.3093 122.17 19.648C122.575 18.9867 123.109 18.4533 123.77 18.048C124.453 17.6427 125.189 17.44 125.978 17.44H136.026C136.837 17.44 137.573 17.6427 138.234 18.048C138.895 18.4533 139.418 18.9867 139.802 19.648C140.207 20.3093 140.41 21.0453 140.41 21.856V38.912C140.41 39.744 140.218 40.4907 139.834 41.152C139.45 41.8133 138.917 42.336 138.234 42.72C137.573 43.1253 136.837 43.328 136.026 43.328H124.666ZM126.138 31.808H135.834C135.941 31.808 136.026 31.776 136.09 31.712C136.175 31.6267 136.218 31.5307 136.218 31.424V22.016C136.218 21.9093 136.175 21.824 136.09 21.76C136.026 21.6747 135.941 21.632 135.834 21.632H126.138C126.031 21.632 125.935 21.6747 125.85 21.76C125.786 21.824 125.754 21.9093 125.754 22.016V31.424C125.754 31.5307 125.786 31.6267 125.85 31.712C125.935 31.776 126.031 31.808 126.138 31.808ZM143.07 36V21.856C143.07 21.0453 143.273 20.3093 143.678 19.648C144.084 18.9867 144.617 18.4533 145.278 18.048C145.961 17.6427 146.697 17.44 147.486 17.44H157.79V21.632H147.646C147.54 21.632 147.444 21.6747 147.358 21.76C147.294 21.824 147.262 21.9093 147.262 22.016V36H143.07ZM164.643 36C163.832 36 163.085 35.7973 162.403 35.392C161.741 34.9867 161.208 34.4533 160.803 33.792C160.419 33.1307 160.227 32.3947 160.227 31.584V24.608H174.883V22.016C174.883 21.9093 174.84 21.824 174.755 21.76C174.691 21.6747 174.605 21.632 174.499 21.632H160.227V17.44H174.659C175.469 17.44 176.205 17.6427 176.867 18.048C177.549 18.4533 178.083 18.9867 178.467 19.648C178.872 20.3093 179.075 21.0453 179.075 21.856V36H164.643ZM164.803 31.808H174.883V28.384H164.419V31.424C164.419 31.5307 164.451 31.6267 164.515 31.712C164.6 31.776 164.696 31.808 164.803 31.808ZM182.573 36V12.96H187.213L195.565 22.912L203.885 12.96H208.557V36H204.301V19.104L195.565 29.504L186.797 19.136V36H182.573ZM216.517 36C215.706 36 214.97 35.7973 214.309 35.392C213.647 34.9867 213.114 34.4533 212.709 33.792C212.303 33.1307 212.101 32.3947 212.101 31.584V21.856C212.101 21.0453 212.303 20.3093 212.709 19.648C213.114 18.9867 213.647 18.4533 214.309 18.048C214.97 17.6427 215.706 17.44 216.517 17.44H226.533C227.343 17.44 228.079 17.6427 228.741 18.048C229.423 18.4533 229.957 18.9867 230.341 19.648C230.746 20.3093 230.949 21.0453 230.949 21.856V28.832H216.293V31.424C216.293 31.5307 216.325 31.6267 216.389 31.712C216.474 31.776 216.57 31.808 216.677 31.808H230.949V36H216.517ZM216.293 25.056H226.757V22.016C226.757 21.9093 226.714 21.824 226.629 21.76C226.565 21.6747 226.479 21.632 226.373 21.632H216.677C216.57 21.632 216.474 21.6747 216.389 21.76C216.325 21.824 216.293 21.9093 216.293 22.016V25.056Z" fill="#32383D"/>
</svg>
